HIERARCHY
ROOT RootJoint
{
    OFFSET   0.000000   0.000000   0.000000
    CHANNELS 6 Xposition Yposition Zposition Xrotation Yrotation Zrotation
    JOINT pelvis_lowerback
    {
        OFFSET   0.000000   0.093605   0.000000
        CHANNELS 3 Xrotation Yrotation Zrotation
        JOINT lowerback_torso
        {
            OFFSET   0.000000   0.100000   0.000000
            CHANNELS 3 Xrotation Yrotation Zrotation
            JOINT torso_head
            {
                OFFSET   0.000000   0.282350   0.000000
                CHANNELS 3 Xrotation Yrotation Zrotation
                End Site
                {
                    OFFSET   0.000000   0.192650   0.000000
                }
            }
            JOINT rTorso_Clavicle
            {
                OFFSET  -0.001000   0.157500   0.000000
                CHANNELS 3 Xrotation Yrotation Zrotation
                JOINT rShoulder
                {
                    OFFSET  -0.117647   0.000000   0.000000
                    CHANNELS 3 Xrotation Yrotation Zrotation
                    JOINT rElbow
                    {
                        OFFSET  -0.245000   0.000000   0.000000
                        CHANNELS 3 Xrotation Yrotation Zrotation
                        JOINT rWrist
                        {
                            OFFSET  -0.240000   0.000000   0.000000
                            CHANNELS 3 Xrotation Yrotation Zrotation
                            End Site
                            {
                                OFFSET  -0.116353  -0.002500   0.000000
                            }
                        }
                    }
                }
            }
            JOINT lTorso_Clavicle
            {
                OFFSET   0.001000   0.157500   0.000000
                CHANNELS 3 Xrotation Yrotation Zrotation
                JOINT lShoulder
                {
                    OFFSET   0.117647   0.000000   0.000000
                    CHANNELS 3 Xrotation Yrotation Zrotation
                    JOINT lElbow
                    {
                        OFFSET   0.245000   0.000000   0.000000
                        CHANNELS 3 Xrotation Yrotation Zrotation
                        JOINT lWrist
                        {
                            OFFSET   0.240000   0.000000   0.000000
                            CHANNELS 3 Xrotation Yrotation Zrotation
                            End Site
                            {
                                OFFSET   0.116353  -0.002500   0.000000
                            }
                        }
                    }
                }
            }
        }
    }
    JOINT rHip
    {
        OFFSET  -0.100000  -0.051395   0.000000
        CHANNELS 3 Xrotation Yrotation Zrotation
        JOINT rKnee
        {
            OFFSET   0.000000  -0.410000   0.000000
            CHANNELS 3 Xrotation Yrotation Zrotation
            JOINT rAnkle
            {
                OFFSET   0.000000  -0.390000   0.000000
                CHANNELS 3 Xrotation Yrotation Zrotation
                JOINT rToeJoint
                {
                    OFFSET   0.000000  -0.050000   0.130000
                    CHANNELS 3 Xrotation Yrotation Zrotation
                    End Site
                    {
                        OFFSET  -0.010000   0.002000   0.060000
                    }
                }
            }
        }
    }
    JOINT lHip
    {
        OFFSET   0.100000  -0.051395   0.000000
        CHANNELS 3 Xrotation Yrotation Zrotation
        JOINT lKnee
        {
            OFFSET   0.000000  -0.410000   0.000000
            CHANNELS 3 Xrotation Yrotation Zrotation
            JOINT lAnkle
            {
                OFFSET   0.000000  -0.390000   0.000000
                CHANNELS 3 Xrotation Yrotation Zrotation
                JOINT lToeJoint
                {
                    OFFSET   0.000000  -0.050000   0.130000
                    CHANNELS 3 Xrotation Yrotation Zrotation
                    End Site
                    {
                        OFFSET   0.010000   0.002000   0.060000
                    }
                }
            }
        }
    }
}
MOTION
Frames: 5
Frame Time:   0.008333
 -2.449656   0.872158   3.839239  -6.244908  23.810780   6.868177  22.852775   1.878054  -1.234349   3.871523  -0.516357   2.132973   2.218245  -1.668637  -1.654549  -0.716048   0.314709  13.083849 -18.246990 -10.082575  43.123399  -0.299433  34.799085   0.290224  -5.160641   0.503908 -13.360814  -6.381806   3.159171   2.435223 -34.051728   5.055035 -23.825125  -0.051181 -57.596415  -0.038240  -4.712620  -1.446732  20.165616 -24.946039   0.583106 -17.043530  53.979342   0.035946   0.061612  -1.058252  -7.852261   6.827390 -17.806610  -0.000281   0.024592 -18.718260   4.013295   7.012789  45.551498   0.030053   0.047743  -6.096134   3.190996  -4.589848 -14.368686  -0.000076  -0.099008
 -2.453461   0.863918   3.836655  -7.242737  24.506446   7.398043  23.417813   1.835364  -1.552503   3.845451  -0.665038   2.094080   2.042087  -1.570909  -1.765450  -0.615420   1.523262  13.481205 -16.865149  -8.929316  43.854558  -0.269901  33.306280   0.278676  -4.890993   0.226451 -12.809271  -6.868005   1.847276   2.996717 -35.139299   3.745112 -22.600982  -0.066201 -58.805752  -0.051244  -4.561632  -1.217114  19.749776 -25.397244   0.667461 -17.317560  56.679317   0.036090   0.055505  -2.490226  -7.738076   6.854132 -16.808090   0.000086   0.023966 -18.783500   3.757359   6.825719  47.304640   0.030430   0.044728  -8.589551   3.149468  -4.352505 -13.583948  -0.001384  -0.076648
 -2.456993   0.854934   3.834119  -8.303897  25.090193   7.959518  23.999581   1.800954  -1.861093   3.812986  -0.795913   2.040574   1.870860  -1.479515  -1.899018  -0.577001   2.706953  13.779436 -15.641197  -7.784349  44.459265  -0.238863  31.931453   0.262235  -4.585700   0.033765 -12.203584  -7.373358   0.549744   3.656021 -36.203078   2.402123 -21.404743  -0.081041 -59.975098  -0.063785  -4.352945  -1.167093  19.453850 -25.863810   0.759864 -17.600492  59.371852   0.034824   0.048008  -3.837649  -7.688107   6.870534 -16.222813   0.000379   0.020776 -18.819468   3.503327   6.632346  49.088818   0.030388   0.040903 -10.990714   3.186892  -4.113151 -13.793593  -0.001043  -0.061993
 -2.460261   0.845451   3.831726  -9.381153  25.600008   8.528035  24.541060   1.755618  -2.153102   3.766866  -0.925969   1.998128   1.713896  -1.393451  -2.032754  -0.576558   3.830865  14.020164 -14.545361  -6.679474  44.968894  -0.208444  30.664105   0.242372  -4.266816  -0.056136 -11.652737  -7.857840  -0.705064   4.338431 -37.202846   1.075026 -20.279675  -0.093960 -61.087309  -0.074966  -4.102942  -1.257831  19.226540 -26.292091   0.861384 -17.878210  62.017039   0.033034   0.040776  -5.124970  -7.642782   6.891497 -16.152054   0.000343   0.016776 -18.840165   3.244189   6.520733  50.812169   0.028919   0.037564 -13.281191   3.300658  -3.868625 -14.617365   0.000675  -0.052567
 -2.463396   0.836208   3.829308 -10.484326  25.984408   9.237048  25.112803   1.701521  -2.532470   3.729869  -1.053445   1.918396   1.561655  -1.313218  -2.165956  -0.612456   4.907365  14.256919 -13.560613  -5.618822  45.416767  -0.180662  29.491709   0.221564  -3.945136  -0.069102 -11.170310  -8.309048  -1.915749   4.986794 -38.129665  -0.209993 -19.243104  -0.103137 -62.135203  -0.083326  -3.831893  -1.433820  19.052498 -26.648742   1.019926 -18.256816  64.510159   0.029799   0.033130  -6.328215  -7.632040   6.904338 -16.180919   0.000266   0.013389 -18.955856   2.921651   6.424164  52.708393   0.024834   0.034517 -15.814751   3.389642  -3.710226 -12.961225  -0.003526  -0.038283
